<svg viewBox="-6.00 -6.00 206.28 66.76" xmlns="http://www.w3.org/2000/svg" role="img" aria-labelledby="atoms-lockup-title">
  <title id="atoms-lockup-title">Atoms logo</title>
  <g>
    <line x1="13.274" y1="41.481" x2="31.111" y2="14.104" stroke="#9A9DA5" stroke-width="1.244" stroke-linecap="round"/>
    <line x1="31.111" y1="14.104" x2="46.874" y2="41.481" stroke="#9A9DA5" stroke-width="1.244" stroke-linecap="round"/>
    <line x1="31.111" y1="14.104" x2="31.526" y2="33.185" stroke="#9A9DA5" stroke-width="1.244" stroke-linecap="round"/>
    <rect x="5.807" y="34.015" width="14.933" height="14.933" rx="3.733" fill="#7C3AED"/>
    <circle cx="46.874" cy="41.481" r="3.733" fill="#44444B"/>
    <circle cx="31.526" cy="33.185" r="3.319" fill="#44444B"/>
    <circle cx="31.111" cy="14.104" r="7.467" fill="#EA580C"/>
  </g>
  <g transform="translate(69.017,39.120) scale(0.019)">
    <path d="M387 8Q278 8 217.5 -31.0Q157 -70 157 -188V-408Q157 -523 236.5 -560.0Q316 -597 419 -597H953V-811Q953 -824 947.0 -830.5Q941 -837 928 -837H402Q390 -837 384.0 -830.5Q378 -824 378 -811V-723L170 -761V-818Q170 -934 233.0 -971.0Q296 -1008 401 -1008H930Q1034 -1008 1097.0 -971.0Q1160 -934 1160 -818V0H953V-126Q930 -49 869.5 -20.5Q809 8 732 8ZM364 -189Q364 -176 370.0 -169.5Q376 -163 389 -163H953V-426H389Q376 -426 370.0 -419.0Q364 -412 364 -400Z" fill="#15161B"/>
    <path d="M1821.0 8.0Q1693.0 8.0 1638.0 -39.5Q1583.0 -87.0 1583.0 -197.0V-829.0H1396.0V-1000.0H1583.0V-1244.0H1790.0V-1000.0H2118.0V-829.0H1790.0V-189.0Q1790.0 -176.0 1796.0 -169.5Q1802.0 -163.0 1815.0 -163.0H2104.0L2068.0 8.0Z" fill="#15161B"/>
    <path d="M2340.0 -197.0V-812.0Q2340.0 -915.0 2396.0 -961.5Q2452.0 -1008.0 2578.0 -1008.0H3154.0Q3281.0 -1008.0 3336.5 -961.5Q3392.0 -915.0 3392.0 -812.0V-197.0Q3392.0 -87.0 3337.0 -39.5Q3282.0 8.0 3154.0 8.0H2578.0Q2450.0 8.0 2395.0 -39.5Q2340.0 -87.0 2340.0 -197.0ZM2547.0 -205.0Q2547.0 -192.0 2553.0 -185.5Q2559.0 -179.0 2572.0 -179.0H3160.0Q3173.0 -179.0 3179.0 -185.5Q3185.0 -192.0 3185.0 -205.0V-795.0Q3185.0 -808.0 3179.0 -814.5Q3173.0 -821.0 3160.0 -821.0H2572.0Q2559.0 -821.0 2553.0 -814.5Q2547.0 -808.0 2547.0 -795.0Z" fill="#15161B"/>
    <path d="M3731.0 0.0V-1000.0H3938.0V-919.0Q3965.0 -963.0 4022.5 -985.5Q4080.0 -1008.0 4181.0 -1008.0H4360.0Q4438.0 -1008.0 4512.5 -988.0Q4587.0 -968.0 4616.0 -890.0Q4636.0 -948.0 4695.5 -978.0Q4755.0 -1008.0 4871.0 -1008.0H5033.0Q5186.0 -1008.0 5254.0 -953.0Q5322.0 -898.0 5322.0 -774.0V0.0H5114.0V-795.0Q5114.0 -807.0 5107.5 -814.0Q5101.0 -821.0 5088.0 -821.0H4630.0V0.0H4423.0V-821.0H3938.0V0.0Z" fill="#15161B"/>
    <path d="M5638.0 -261.0 5822.0 -300.0V-189.0Q5822.0 -176.0 5828.0 -169.5Q5834.0 -163.0 5848.0 -163.0H6382.0Q6396.0 -163.0 6402.0 -169.5Q6408.0 -176.0 6408.0 -189.0V-391.0Q6408.0 -403.0 6402.0 -410.0Q6396.0 -417.0 6382.0 -417.0H5887.0Q5779.0 -417.0 5718.5 -457.0Q5658.0 -497.0 5658.0 -615.0V-818.0Q5658.0 -932.0 5721.5 -970.0Q5785.0 -1008.0 5887.0 -1008.0H6348.0Q6452.0 -1008.0 6515.0 -970.0Q6578.0 -932.0 6578.0 -818.0V-751.0L6393.0 -714.0V-811.0Q6393.0 -824.0 6387.5 -830.5Q6382.0 -837.0 6368.0 -837.0H5869.0Q5854.0 -837.0 5848.5 -830.5Q5843.0 -824.0 5843.0 -811.0V-619.0Q5843.0 -606.0 5848.5 -599.5Q5854.0 -593.0 5869.0 -593.0H6362.0Q6466.0 -593.0 6529.5 -556.0Q6593.0 -519.0 6593.0 -403.0V-188.0Q6593.0 -70.0 6532.0 -31.0Q6471.0 8.0 6362.0 8.0H5866.0Q5758.0 8.0 5698.0 -31.0Q5638.0 -70.0 5638.0 -188.0Z" fill="#15161B"/>
  </g>
</svg>
